<svg width="142" height="49" viewBox="0 0 142 49" fill="none" xmlns="http://www.w3.org/2000/svg">
<g id="Isolation_Mode" clip-path="url(#clip0_714_8667)">
<path id="Vector" d="M116.781 0.000279298C116.773 0.197 116.752 0.397906 116.752 0.594627C116.752 8.18721 116.752 15.7756 116.752 23.3682V23.9877H108.15V11.3724C108.004 11.5315 107.92 11.6026 107.857 11.6905C105.514 14.9511 103.174 18.2116 100.834 21.4721C100.324 22.1879 99.2227 22.1711 98.7079 21.447C96.3933 18.1865 94.0745 14.9259 91.7599 11.6696C91.7096 11.5984 91.6469 11.5315 91.5297 11.3892V23.9877H82.8907V23.3682C82.8907 15.7756 82.8907 8.18721 82.8907 0.594627C82.8907 0.397906 82.8656 0.201186 82.853 0.000279298H92.417C92.4798 0.117475 92.5342 0.243041 92.6137 0.351865C94.3507 2.74181 96.0919 5.12758 97.8331 7.51334C98.4693 8.38812 99.1055 9.2629 99.7668 10.1712C99.8757 10.0372 99.9552 9.94933 100.026 9.85306C101.893 7.31243 103.764 4.77599 105.631 2.23118C106.171 1.49452 106.694 0.741121 107.225 -0.00390625H116.789L116.781 0.000279298Z" fill="#1c2b36"/>
<path id="Vector_2" d="M71.9284 12.0376C71.9284 11.8786 71.9284 11.753 71.9284 11.6316C71.9452 8.94033 70.3547 6.62991 67.8224 5.6756C65.5036 4.80082 62.737 5.55841 61.0335 7.5298C59.5643 9.22913 59.3006 11.234 59.5853 13.3561C60.0917 17.1482 64.227 19.5884 67.8057 18.2574C70.3003 17.3323 72.1 14.9047 71.9243 12.0334M74.7579 0C75.0718 0.263689 75.3899 0.523193 75.6996 0.786883C78.5876 3.26891 80.3707 6.39552 80.7892 10.1751C81.4045 15.7753 79.4499 20.3627 74.9923 23.8451C74.85 23.9539 74.6323 24.025 74.4523 24.025C68.6428 24.0334 62.8374 24.0334 57.0279 24.025C56.8186 24.025 56.5717 23.9413 56.4042 23.8158C52.6331 20.9947 50.6575 17.2193 50.4817 12.5106C50.3561 9.07845 51.3062 5.97278 53.353 3.2145C54.2905 1.95046 55.4332 0.887336 56.7349 0L74.7579 0Z" fill="#1c2b36"/>
<path id="Vector_3" d="M27.1725 12.0627C27.2186 12.5943 27.2311 13.1342 27.319 13.6616C27.7209 16.0599 29.6797 18.0439 32.1492 18.5713C34.5559 19.0861 37.1969 18.0062 38.5489 16.0055C39.499 14.595 39.725 13.038 39.6287 11.3972C39.4822 8.99056 38.394 7.14473 36.2552 6.01882C34.1792 4.92639 32.0864 5.09381 30.1443 6.32855C28.0766 7.64281 27.1516 9.6142 27.1767 12.0627M42.3912 0C44.4463 1.51935 46.1456 3.35262 47.1878 5.7049C49.6322 11.2005 49.063 16.3948 45.409 21.1831C44.6556 22.1667 43.6385 22.9535 42.7219 23.8074C42.5754 23.9455 42.3117 24.025 42.1066 24.025C36.3138 24.0376 30.521 24.0376 24.7282 24.025C24.5315 24.025 24.3013 23.9539 24.1422 23.8409C20.8189 21.4091 18.8433 18.1444 18.3076 14.0676C17.7844 10.1039 18.655 6.44993 21.0533 3.21032C21.9155 2.04255 22.9661 1.05894 24.138 0.205092C24.2217 0.142309 24.2929 0.0669688 24.3682 0L42.3912 0Z" fill="#1c2b36"/>
<path id="Vector_4" d="M128.217 5.55032V18.4041C129.142 18.4041 130.038 18.4669 130.917 18.3916C133.415 18.1823 135.228 16.6797 135.885 14.2939C136.337 12.6448 136.316 10.9832 135.785 9.35498C135.299 7.8733 134.366 6.76831 132.917 6.11955C131.406 5.44568 129.82 5.5252 128.217 5.55032ZM138.668 0.000279299C139.434 0.552772 140.188 1.11782 140.966 1.65357C141.715 2.17258 141.921 2.84645 141.912 3.7589C141.866 9.4931 141.887 15.2273 141.895 20.9615C141.895 21.2964 141.816 21.5475 141.561 21.7609C141.255 22.0163 140.966 22.2883 140.673 22.5562C139.489 23.6319 138.162 24.0672 136.509 24.0379C130.98 23.9374 125.446 24.0002 119.917 24.0002H119.323V23.4059C119.323 15.7714 119.323 8.1328 119.323 0.49836C119.323 0.330938 119.348 0.163516 119.36 -0.00390625H138.673L138.668 0.000279299Z" fill="#1c2b36"/>
<path id="Vector_5" d="M18.1151 0C16.9891 2.00069 15.8716 4.00557 14.7415 6.00208C12.4353 10.083 10.129 14.1555 7.8186 18.2364C7.79768 18.2741 7.78931 18.3201 7.74745 18.4332H17.6379V24.0209H0V14.9089C0.046041 14.8503 0.0962676 14.7959 0.133938 14.7289C1.7956 11.7823 3.46145 8.83569 5.11893 5.88488C5.17334 5.78861 5.19845 5.67979 5.25705 5.52074H0V0H18.1151Z" fill="#1c2b36"/>
<path id="Vector_6" d="M136.365 43.0778C135.993 42.835 135.704 42.5044 135.499 42.0774C135.294 41.6547 135.185 41.165 135.173 40.6083C135.185 40.0558 135.294 39.5661 135.499 39.1434C135.704 38.7206 135.993 38.39 136.357 38.1556C136.721 37.9212 137.14 37.804 137.613 37.804C138.086 37.804 138.475 37.9212 138.822 38.1556C139.17 38.39 139.442 38.7206 139.634 39.1434C139.831 39.5661 139.927 40.0558 139.927 40.6083C139.927 41.1608 139.831 41.6505 139.634 42.0774C139.442 42.5002 139.17 42.835 138.822 43.0778C138.475 43.3205 138.077 43.4419 137.629 43.4419C137.156 43.4419 136.738 43.3205 136.365 43.0778ZM139.053 44.6683C139.588 44.2874 139.998 43.7475 140.279 43.0527C140.563 42.3579 140.702 41.5459 140.702 40.6125C140.702 39.6791 140.559 38.8546 140.279 38.1639C139.994 37.4733 139.588 36.9376 139.053 36.5567C138.517 36.1758 137.876 35.9833 137.136 35.9833C136.336 35.9833 135.637 36.1758 135.043 36.5567C134.448 36.9418 133.984 37.4775 133.645 38.1639C133.31 38.8546 133.143 39.6707 133.143 40.6125C133.143 41.5542 133.31 42.3579 133.645 43.0527C133.98 43.7475 134.444 44.2874 135.043 44.6683C135.637 45.0534 136.336 45.2417 137.136 45.2417C137.876 45.2417 138.517 45.0492 139.053 44.6683ZM141.89 45.0282V32.6558H139.927V43.3833L140.015 45.0282H141.89ZM131.991 40.5037V40.0433C131.991 39.0889 131.858 38.3146 131.594 37.7203C131.33 37.1259 130.945 36.6864 130.447 36.4018C129.945 36.1172 129.342 35.9791 128.635 35.9791C127.927 35.9791 127.337 36.1549 126.831 36.5023C126.324 36.8497 125.935 37.3561 125.663 38.0216C125.391 38.6871 125.257 39.4866 125.257 40.4158H125.998C125.998 39.5787 126.182 38.9383 126.546 38.4904C126.91 38.0426 127.425 37.8249 128.082 37.8375C128.471 37.8375 128.81 37.9128 129.099 38.0677C129.388 38.2225 129.61 38.4904 129.769 38.8713C129.928 39.2564 130.008 39.8005 130.008 40.5079H131.987L131.991 40.5037ZM131.991 40.5037H130.012V45.0282H131.991V40.5037ZM126.002 45.0282V37.8165L125.876 36.1884H124.022V45.0241H126.002V45.0282ZM116.857 43.0569C116.471 42.8141 116.174 42.4876 115.957 42.0691C115.739 41.6505 115.63 41.165 115.63 40.6125C115.63 40.06 115.735 39.5745 115.948 39.1559C116.162 38.7374 116.455 38.4067 116.831 38.1681C117.208 37.9254 117.643 37.8082 118.137 37.8082C118.631 37.8082 119.071 37.9296 119.456 38.1681C119.837 38.4109 120.134 38.7416 120.347 39.1559C120.561 39.5745 120.665 40.06 120.665 40.6125C120.665 41.165 120.561 41.6547 120.347 42.0691C120.134 42.4876 119.845 42.8183 119.473 43.0569C119.1 43.2996 118.669 43.421 118.175 43.421C117.681 43.421 117.242 43.2996 116.857 43.0569ZM120.498 44.6474C121.176 44.2539 121.708 43.7098 122.088 43.0108C122.469 42.316 122.662 41.5166 122.662 40.6083C122.662 39.7 122.469 38.9006 122.088 38.2058C121.703 37.511 121.172 36.9669 120.49 36.5693C119.807 36.1758 119.016 35.9749 118.121 35.9749C117.225 35.9749 116.471 36.1716 115.789 36.5693C115.107 36.9627 114.571 37.5068 114.19 38.2058C113.805 38.9006 113.617 39.7042 113.617 40.6083C113.617 41.5124 113.809 42.316 114.199 43.0108C114.588 43.7056 115.124 44.2497 115.806 44.6474C116.488 45.0408 117.279 45.2375 118.175 45.2375C119.071 45.2375 119.82 45.0408 120.498 44.6474ZM109.687 45.0282L109.05 43.6303L105.974 36.1884H103.819L107.778 45.0241H109.687V45.0282ZM107.657 48.4311C108.033 48.2009 108.347 47.8744 108.603 47.4517C108.854 47.0289 109.105 46.5309 109.352 45.9658L113.454 36.1926H111.298L108.31 43.6512L107.267 46.0914C107.15 46.376 106.995 46.5895 106.799 46.7359C106.602 46.8824 106.363 46.9578 106.083 46.9578C105.966 46.9578 105.811 46.9243 105.623 46.8615C105.434 46.7987 105.229 46.7108 105.003 46.6062L104.262 48.2134C104.58 48.3767 104.915 48.5148 105.263 48.6194C105.61 48.7241 105.924 48.7785 106.209 48.7785C106.799 48.7785 107.28 48.6655 107.657 48.4353M97.6156 38.6244C97.85 38.3146 98.1471 38.076 98.4987 37.917C98.8545 37.7579 99.2061 37.6784 99.5577 37.6784C99.9093 37.6784 100.248 37.7579 100.575 37.917C100.897 38.076 101.165 38.3104 101.378 38.6244C101.592 38.9383 101.696 39.3359 101.696 39.8172L101.96 39.5703H96.9752L97.2598 39.8172C97.2598 39.3359 97.377 38.9383 97.6114 38.6244M101.337 44.9571C101.86 44.7687 102.316 44.4967 102.697 44.1451C103.078 43.7893 103.396 43.3791 103.643 42.9062L101.893 42.1653C101.692 42.5546 101.416 42.8685 101.064 43.1113C100.713 43.354 100.261 43.4754 99.7209 43.4754C99.2479 43.4754 98.821 43.3708 98.4318 43.1573C98.0425 42.9438 97.7286 42.6425 97.4942 42.249C97.2598 41.8556 97.1426 41.3868 97.1426 40.8427L96.8789 41.0896H103.823C103.823 40.0307 103.639 39.1182 103.266 38.3523C102.894 37.5863 102.391 37.0004 101.755 36.5944C101.119 36.1884 100.407 35.9833 99.6163 35.9833C98.7457 35.9833 97.9714 36.18 97.2933 36.5776C96.6152 36.9711 96.0837 37.5152 95.6944 38.2142C95.3052 38.909 95.1126 39.7126 95.1126 40.6167C95.1126 41.5208 95.3052 42.3244 95.686 43.0192C96.0711 43.714 96.5943 44.2581 97.2598 44.6557C97.9253 45.0492 98.6871 45.2459 99.5493 45.2459C100.219 45.2459 100.818 45.1496 101.345 44.9613M88.579 43.0778C88.2316 42.835 87.9595 42.5044 87.767 42.0774C87.5744 41.6547 87.474 41.165 87.474 40.6083C87.474 40.0516 87.5703 39.5828 87.767 39.1601C87.9637 38.7374 88.2358 38.4025 88.5873 38.1598C88.9389 37.917 89.3408 37.7998 89.7886 37.7998C90.2699 37.7998 90.6969 37.917 91.061 38.1514C91.4251 38.3858 91.714 38.7164 91.919 39.1392C92.1241 39.5619 92.2288 40.0516 92.2288 40.6041C92.2288 41.1566 92.12 41.6463 91.9023 42.0732C91.6847 42.496 91.3917 42.8308 91.0275 43.0736C90.6634 43.3164 90.2448 43.4377 89.7719 43.4377C89.2989 43.4377 88.9264 43.3164 88.579 43.0736M92.3585 44.6683C92.9529 44.2874 93.4175 43.7475 93.7565 43.0527C94.0955 42.3579 94.2588 41.5459 94.2588 40.6125C94.2588 39.6791 94.0913 38.8546 93.7565 38.1639C93.4217 37.4733 92.9571 36.9376 92.3585 36.5567C91.7642 36.1758 91.0652 35.9833 90.2658 35.9833C89.5249 35.9833 88.8845 36.1758 88.3488 36.5567C87.813 36.9418 87.4028 37.4775 87.1182 38.1639C86.8336 38.8546 86.6955 39.6707 86.6955 40.6125C86.6955 41.5542 86.8378 42.3579 87.1182 43.0527C87.4028 43.7475 87.8088 44.2874 88.3488 44.6683C88.8845 45.0534 89.5249 45.2417 90.2658 45.2417C91.0652 45.2417 91.7642 45.0492 92.3585 44.6683ZM87.3652 45.0282L87.4698 43.3833V32.6558H85.49V45.0282H87.3652ZM74.2267 43.0778C73.8542 42.835 73.5654 42.5044 73.3603 42.0774C73.1552 41.6547 73.0464 41.165 73.0339 40.6083C73.0464 40.0558 73.1552 39.5661 73.3603 39.1434C73.5654 38.7206 73.85 38.39 74.2184 38.1556C74.5825 37.9212 75.0011 37.804 75.474 37.804C75.947 37.804 76.3363 37.9212 76.6837 38.1556C77.0311 38.39 77.3031 38.7206 77.4956 39.1434C77.6882 39.5661 77.7886 40.0558 77.7886 40.6083C77.7886 41.1608 77.6924 41.6505 77.4956 42.0774C77.2989 42.5002 77.0311 42.835 76.6837 43.0778C76.3363 43.3205 75.9386 43.4419 75.4908 43.4419C75.0178 43.4419 74.5992 43.3205 74.2267 43.0778ZM76.9138 44.6683C77.4496 44.2874 77.8598 43.7475 78.1444 43.0527C78.4248 42.3579 78.5671 41.5459 78.5671 40.6125C78.5671 39.6791 78.4248 38.8546 78.1444 38.1639C77.8598 37.4733 77.4538 36.9376 76.9138 36.5567C76.3781 36.1758 75.7377 35.9833 74.9969 35.9833C74.1932 35.9833 73.4984 36.1758 72.9041 36.5567C72.3097 36.9418 71.8452 37.4775 71.5061 38.1639C71.1671 38.8504 71.0039 39.6707 71.0039 40.6125C71.0039 41.5542 71.1713 42.3579 71.5061 43.0527C71.841 43.7475 72.3056 44.2874 72.9041 44.6683C73.4984 45.0534 74.1974 45.2417 74.9969 45.2417C75.7377 45.2417 76.3781 45.0492 76.9138 44.6683ZM79.7475 45.0282V32.6558H77.7844V43.3833L77.8723 45.0282H79.7475ZM69.8528 40.5037V40.0433C69.8528 39.0889 69.7189 38.3146 69.4552 37.7203C69.1915 37.1259 68.8064 36.6864 68.3084 36.4018C67.8061 36.1172 67.2034 35.9791 66.496 35.9791C65.7887 35.9791 65.1985 36.1549 64.6921 36.5023C64.1856 36.8497 63.7963 37.3561 63.5243 38.0216C63.2522 38.6871 63.1183 39.4866 63.1183 40.4158H63.8591C63.8591 39.5787 64.0433 38.9383 64.4074 38.4904C64.7716 38.0426 65.2864 37.8249 65.9435 37.8375C66.3328 37.8375 66.6718 37.9128 66.9606 38.0677C67.2494 38.2225 67.4713 38.4904 67.6303 38.8713C67.7894 39.2564 67.8689 39.8005 67.8689 40.5079H69.8486L69.8528 40.5037ZM69.8528 40.5037H67.8731V45.0282H69.8528V40.5037ZM63.8591 45.0282V37.8165L63.7336 36.1884H61.8794V45.0241H63.8591V45.0282ZM58.1333 44.2079C58.6146 43.5173 58.8574 42.5755 58.8574 41.3701H58.2756C58.2756 41.7844 58.1835 42.1528 58.0035 42.4834C57.8194 42.8141 57.5641 43.0778 57.2334 43.2787C56.9027 43.4796 56.5135 43.58 56.0656 43.58C55.5717 43.58 55.1867 43.4838 54.9062 43.2871C54.63 43.0945 54.4919 42.8225 54.4919 42.4834C54.4919 42.0816 54.6509 41.7719 54.969 41.5542C55.2871 41.3366 55.8396 41.2278 56.6307 41.2278H58.3635V39.7084H55.9945C54.8853 39.7084 54.0231 39.9512 53.4036 40.4325C52.7842 40.9138 52.4744 41.617 52.4744 42.5337C52.4744 43.3959 52.7674 44.0614 53.3492 44.5302C53.931 45.0031 54.7556 45.2375 55.8145 45.2375C56.8735 45.2375 57.6478 44.8943 58.1291 44.2037M60.1842 45.0282L60.2386 40.1856C60.2386 39.3024 60.1005 38.549 59.8243 37.9254C59.548 37.3017 59.1211 36.8204 58.5435 36.4855C57.9659 36.1507 57.246 35.9833 56.3879 35.9833C55.7182 35.9833 55.1406 36.0837 54.6635 36.2846C54.1863 36.4855 53.7929 36.7534 53.479 37.0883C53.165 37.4231 52.9181 37.7872 52.7298 38.1765L54.4626 38.8127C54.6844 38.436 54.9565 38.1598 55.2746 37.984C55.5927 37.8082 55.9652 37.7203 56.3879 37.7203C56.8483 37.7203 57.2167 37.8291 57.4929 38.0467C57.7692 38.2644 57.9701 38.5783 58.0956 38.9843C58.2212 39.3903 58.2798 39.8926 58.2798 40.4953V43.375L58.3677 45.0366H60.1884L60.1842 45.0282ZM46.1333 47.0624L47.7238 43.0527H45.6394L44.5805 47.0624H46.1375H46.1333ZM37.7204 38.6244C37.9548 38.3146 38.2519 38.076 38.6035 37.917C38.9593 37.7579 39.3109 37.6784 39.6625 37.6784C40.0141 37.6784 40.3531 37.7579 40.6796 37.917C41.0018 38.076 41.2697 38.3104 41.4832 38.6244C41.6966 38.9383 41.8013 39.3359 41.8013 39.8172L42.065 39.5703H37.08L37.3646 39.8172C37.3646 39.3359 37.4818 38.9383 37.7162 38.6244M41.4413 44.9571C41.9645 44.7687 42.4207 44.4967 42.8016 44.1451C43.1867 43.7893 43.5006 43.3791 43.7476 42.9062L41.998 42.1653C41.7971 42.5546 41.5209 42.8685 41.1651 43.1113C40.8135 43.354 40.3656 43.4754 39.8215 43.4754C39.3486 43.4754 38.9216 43.3708 38.5324 43.1573C38.1431 42.9438 37.8334 42.6425 37.5948 42.249C37.3604 41.8556 37.2432 41.3868 37.2432 40.8427L36.9795 41.0896H43.9234C43.9234 40.0307 43.7392 39.1182 43.3667 38.3523C42.9942 37.5863 42.4919 37.0004 41.8557 36.5944C41.2195 36.1884 40.5079 35.9833 39.7169 35.9833C38.8463 35.9833 38.072 36.18 37.3939 36.5776C36.7158 36.9711 36.1843 37.5152 35.795 38.2142C35.4058 38.909 35.2132 39.7126 35.2132 40.6167C35.2132 41.5208 35.4058 42.3244 35.7866 43.0192C36.1675 43.714 36.6949 44.2581 37.3604 44.6557C38.0259 45.0492 38.7877 45.2459 39.6499 45.2459C40.3196 45.2459 40.9181 45.1496 41.4455 44.9613M31.622 36.1926H29.6423V45.0282H31.622V36.1926ZM31.622 40.2944C31.622 39.7545 31.7685 39.315 32.0657 38.9885C32.3587 38.6578 32.7479 38.4193 33.2251 38.2728C33.7022 38.1263 34.2129 38.0509 34.7528 38.0509V36.1591C34.1166 36.1591 33.5055 36.3097 32.9237 36.6111C32.3419 36.9125 31.8648 37.3687 31.5006 37.9798C31.1365 38.5909 30.9523 39.3778 30.9523 40.3321L31.622 40.2986V40.2944ZM22.2757 38.6244C22.5101 38.3146 22.8073 38.076 23.1589 37.917C23.5104 37.7579 23.8662 37.6784 24.2178 37.6784C24.5694 37.6784 24.9084 37.7579 25.2349 37.917C25.5572 38.076 25.8292 38.3104 26.0385 38.6244C26.252 38.9383 26.3566 39.3359 26.3566 39.8172L26.6203 39.5703H21.6353L21.9199 39.8172C21.9199 39.3359 22.0371 38.9383 22.2715 38.6244M25.9967 44.9571C26.5198 44.7687 26.9761 44.4967 27.357 44.1451C27.7378 43.7893 28.0559 43.3791 28.3029 42.9062L26.5533 42.1653C26.3524 42.5546 26.0762 42.8685 25.7246 43.1113C25.373 43.354 24.9252 43.4754 24.381 43.4754C23.9081 43.4754 23.4811 43.3708 23.0919 43.1573C22.7026 42.9438 22.3929 42.6425 22.1543 42.249C21.9199 41.8556 21.7985 41.3868 21.7985 40.8427L21.5349 41.0896H28.4787C28.4787 40.0307 28.2945 39.1182 27.922 38.3523C27.5495 37.5863 27.0472 37.0004 26.411 36.5944C25.7748 36.1884 25.0633 35.9833 24.2722 35.9833C23.4016 35.9833 22.6273 36.18 21.9492 36.5776C21.2712 36.9711 20.7396 37.5152 20.3503 38.2142C19.9611 38.909 19.7686 39.7126 19.7686 40.6167C19.7686 41.5208 19.9611 42.3244 20.342 43.0192C20.7229 43.714 21.2502 44.2581 21.9157 44.6557C22.5812 45.0492 23.343 45.2459 24.2052 45.2459C24.8749 45.2459 25.4735 45.1496 26.0008 44.9613M18.6175 40.5037V40.0433C18.6175 39.0889 18.4836 38.3146 18.2199 37.7203C17.9562 37.1259 17.567 36.6864 17.0605 36.4018C16.5541 36.1172 15.9513 35.9791 15.2565 35.9791C14.5617 35.9791 13.959 36.1549 13.4526 36.5023C12.9461 36.8497 12.5527 37.3561 12.2764 38.0216C12.0002 38.6871 11.8621 39.4866 11.8621 40.4158H12.6238C12.6238 39.5787 12.8038 38.9383 13.1638 38.4904C13.5237 38.0426 14.0385 37.8249 14.7124 37.8375C15.0891 37.8375 15.424 37.9128 15.7128 38.0677C16.0016 38.2225 16.2276 38.4904 16.3908 38.8713C16.5541 39.2564 16.6378 39.8005 16.6378 40.5079H18.6175V40.5037ZM18.6175 40.5037H16.6378V45.0282H18.6175V40.5037ZM12.6238 32.6558H10.6441V45.0282H12.6238V32.6558ZM5.85579 45.0282V34.5309H9.65627V32.6558H0.00439453V34.5309H3.80487V45.0282H5.85579Z" fill="#1c2b36"/>
</g>
<defs>
<clipPath id="clip0_714_8667">
<rect width="141.907" height="48.7742" fill="#1c2b36"/>
</clipPath>
</defs>
</svg>
